<svg width="32" height="32" viewBox="0 0 32 32" fill="none" xmlns="http://www.w3.org/2000/svg">
<g clip-path="url(#clip0_201_2)">
<rect width="32" height="32" fill="#1E293B"/>
<path d="M12.7091 17.7C13.1757 18.4867 13.6424 19.1867 14.1091 19.8C14.5891 20.4 15.2157 21.14 15.9891 22.02C16.0824 22.1133 16.1291 22.22 16.1291 22.34C16.1291 22.5267 16.0224 22.6867 15.8091 22.82C15.6091 22.9533 15.3624 23.02 15.0691 23.02C14.6557 23.02 14.2091 22.8467 13.7291 22.5C13.3024 22.1933 12.9224 21.7867 12.5891 21.28C12.2557 20.7733 11.8691 20.1133 11.4291 19.3C11.0824 18.6733 10.8757 18.3067 10.8091 18.2C10.2891 18.4133 9.47573 18.5467 8.36906 18.6C8.36906 19.0533 8.40906 19.6667 8.48906 20.44C8.56906 21.24 8.60906 21.82 8.60906 22.18C8.60906 22.42 8.48906 22.62 8.24906 22.78C8.0224 22.94 7.7624 23.02 7.46906 23.02C7.1224 23.02 6.85573 22.88 6.66906 22.6C6.4824 22.2267 6.3624 21.78 6.30906 21.26C6.25573 20.74 6.22906 20.12 6.22906 19.4C6.22906 18.64 6.27573 17.78 6.36906 16.82C6.44906 15.7533 6.48906 14.9667 6.48906 14.46C6.48906 14.0467 6.44906 13.4933 6.36906 12.8C6.35573 12.68 6.33573 12.4733 6.30906 12.18C6.2824 11.8867 6.26906 11.62 6.26906 11.38C6.26906 11.1933 6.33573 11.0333 6.46906 10.9C6.61573 10.7533 6.76906 10.6533 6.92906 10.6C8.00906 10.4267 9.0624 10.34 10.0891 10.34C11.8357 10.34 13.2824 10.6667 14.4291 11.32C15.5757 11.9733 16.1491 12.9667 16.1491 14.3C16.1491 14.7133 16.0557 15.1133 15.8691 15.5C15.6957 15.8733 15.4557 16.1867 15.1491 16.44C14.3357 17.0667 13.5224 17.4867 12.7091 17.7ZM14.0491 14.24C14.0491 13.6 13.7091 13.08 13.0291 12.68C12.3491 12.2667 11.3824 12.06 10.1291 12.06C9.56906 12.06 9.01573 12.1267 8.46906 12.26L8.48906 13.28C8.48906 13.8667 8.46906 14.44 8.42906 15C8.38906 15.56 8.36906 16.16 8.36906 16.8C8.59573 16.7467 8.83573 16.7133 9.08906 16.7C9.3424 16.6733 9.50906 16.6533 9.58906 16.64C10.1757 16.5867 10.6291 16.52 10.9491 16.44C11.5491 16.2533 12.0424 16.0867 12.4291 15.94C12.8291 15.78 13.1957 15.56 13.5291 15.28C13.8757 14.9867 14.0491 14.64 14.0491 14.24ZM19.2394 23.06C18.9327 23.06 18.6994 22.98 18.5394 22.82C18.3794 22.6467 18.2994 22.4733 18.2994 22.3C18.3794 21.82 18.426 21.3067 18.4394 20.76C18.4527 20.2133 18.4594 19.8867 18.4594 19.78V19.06C18.4594 18.5133 18.4527 18.0333 18.4394 17.62C18.426 17.1933 18.4127 16.8333 18.3994 16.54C18.346 15.3667 18.3194 14.4533 18.3194 13.8V13.18C18.346 12.54 18.3794 11.98 18.4194 11.5C18.4327 11.3133 18.546 11.1133 18.7594 10.9C18.986 10.6867 19.2927 10.5533 19.6794 10.5C20.946 10.3667 22.5194 10.3 24.3994 10.3H25.0394C25.506 10.3 25.966 10.3867 26.4194 10.56C26.886 10.7333 27.1194 11.0267 27.1194 11.44C27.1194 11.72 27.0527 11.9467 26.9194 12.12C26.786 12.28 26.526 12.36 26.1394 12.36C25.966 12.36 25.766 12.3467 25.5394 12.32C25.3127 12.2933 25.1527 12.2733 25.0594 12.26C24.5527 12.18 24.1594 12.14 23.8794 12.14C22.3327 12.14 21.1594 12.2467 20.3594 12.46V13.56V15.86C21.266 15.86 22.2127 15.82 23.1994 15.74C23.9194 15.6867 24.386 15.66 24.5994 15.66C24.906 15.66 25.166 15.7333 25.3794 15.88C25.606 16.0133 25.7194 16.22 25.7194 16.5C25.7194 17.1933 25.246 17.54 24.2994 17.54C24.0727 17.54 23.7327 17.5667 23.2794 17.62C22.7727 17.6733 22.3794 17.7 22.0994 17.7C21.926 17.7 21.6794 17.6867 21.3594 17.66C20.946 17.6333 20.666 17.6267 20.5194 17.64C20.506 17.9867 20.5127 18.5267 20.5394 19.26L20.5594 20.6C20.5594 21.0533 20.5527 21.3933 20.5394 21.62C20.526 21.8333 20.486 22.0667 20.4194 22.32C20.3794 22.5333 20.2594 22.7133 20.0594 22.86C19.8594 22.9933 19.586 23.06 19.2394 23.06Z" fill="white"/>
</g>
<defs>
<clipPath id="clip0_201_2">
<rect width="32" height="32" fill="white"/>
</clipPath>
</defs>
</svg>
